<?xml version="1.0" standalone="no"?>
<!DOCTYPE svg PUBLIC "-//W3C//DTD SVG 20010904//EN"
 "http://www.w3.org/TR/2001/REC-SVG-20010904/DTD/svg10.dtd">
<svg version="1.0" xmlns="http://www.w3.org/2000/svg"
 width="225.000000pt" height="225.000000pt" viewBox="0 0 225.000000 225.000000"
 preserveAspectRatio="xMidYMid meet">

<g transform="translate(0.000000,225.000000) scale(0.100000,-0.100000)"
fill="#000000" stroke="none">
<path d="M985 2010 c-235 -35 -470 -194 -613 -413 -246 -376 -160 -883 198
-1169 179 -143 439 -217 666 -188 97 12 218 47 289 82 136 69 276 198 358 330
329 528 31 1223 -578 1349 -92 19 -227 23 -320 9z m370 -49 c306 -87 533 -318
612 -620 30 -117 34 -284 9 -399 -57 -259 -231 -478 -480 -603 -100 -50 -124
-50 -70 -1 59 52 90 98 118 174 78 206 8 430 -169 543 -68 43 -128 61 -270 80
-140 19 -218 50 -289 115 -55 51 -102 142 -118 227 -34 183 77 383 264 478
l73 37 125 -5 c81 -4 150 -13 195 -26z m-158 -1151 c142 -64 90 -280 -67 -280
-149 0 -193 219 -56 281 52 23 71 23 123 -1z"/>
<path d="M1059 1697 c-94 -63 -88 -199 12 -249 62 -32 126 -19 178 36 37 39
42 124 10 171 -45 66 -136 85 -200 42z"/>
</g>
</svg>
